<?xml version="1.0" encoding="UTF-8" standalone="no"?>
<!-- Created with Inkscape (http://www.inkscape.org/) -->

<svg
   xmlns:dc="http://purl.org/dc/elements/1.1/"
   xmlns:cc="http://creativecommons.org/ns#"
   xmlns:rdf="http://www.w3.org/1999/02/22-rdf-syntax-ns#"
   xmlns:svg="http://www.w3.org/2000/svg"
   xmlns="http://www.w3.org/2000/svg"
   xmlns:sodipodi="http://sodipodi.sourceforge.net/DTD/sodipodi-0.dtd"
   xmlns:inkscape="http://www.inkscape.org/namespaces/inkscape"
   width="16px"
   height="16px"
   id="svg2985"
   version="1.1"
   inkscape:version="0.48.3.1 r9886"
   sodipodi:docname="speedy.svg">
  <defs
     id="defs2987" />
  <sodipodi:namedview
     id="base"
     pagecolor="#ffffff"
     bordercolor="#666666"
     borderopacity="1.0"
     inkscape:pageopacity="0.0"
     inkscape:pageshadow="2"
     inkscape:zoom="5.6568543"
     inkscape:cx="-31.508285"
     inkscape:cy="-31.985725"
     inkscape:current-layer="layer1"
     showgrid="true"
     inkscape:grid-bbox="true"
     inkscape:document-units="px"
     inkscape:window-width="1918"
     inkscape:window-height="973"
     inkscape:window-x="0"
     inkscape:window-y="27"
     inkscape:window-maximized="1" />
  <metadata
     id="metadata2990">
    <rdf:RDF>
      <cc:Work
         rdf:about="">
        <dc:format>image/svg+xml</dc:format>
        <dc:type
           rdf:resource="http://purl.org/dc/dcmitype/StillImage" />
        <dc:title></dc:title>
      </cc:Work>
    </rdf:RDF>
  </metadata>
  <g
     id="layer1"
     inkscape:label="Layer 1"
     inkscape:groupmode="layer">
    <path
       style="fill:none;stroke:#333333;stroke-width:0.63127846;stroke-linecap:round;stroke-linejoin:bevel;stroke-miterlimit:4;stroke-opacity:1;stroke-dasharray:none"
       d="m 2.1476477,1.7333216 0.022191,11.7863204 11.2644763,0.03578"
       id="path3776"
       inkscape:connector-curvature="0"
       sodipodi:nodetypes="ccc" />
    <path
       style="fill:none;stroke:#333333;stroke-width:1px;stroke-linecap:round;stroke-linejoin:round;stroke-opacity:1"
       d="m 2.4326733,9.5579208 c 0,0 1.9299254,-0.4254651 3.1534654,0.7658412 1.22354,1.191307 0.8108911,2.973267 0.8108911,2.973267"
       id="path4858"
       inkscape:connector-curvature="0"
       sodipodi:nodetypes="czc" />
    <g
       transform="matrix(0.99980905,0.01954151,-0.01954151,0.99980905,-1.487876,6.6815896)"
       style="font-size:8px;font-style:normal;font-variant:normal;font-weight:300;font-stretch:normal;line-height:125%;letter-spacing:0px;word-spacing:0px;fill:#000000;fill-opacity:1;stroke:none;font-family:Ubuntu;-inkscape-font-specification:Ubuntu Light"
       id="text4860">
      <path
         d="m 9.4774398,-1.7722047 c -3.9e-6,1.11466894 -0.2666703,1.9546681 -0.8,2.52000004 C 8.1441039,1.3077956 7.365438,1.5877953 6.3414398,1.5877953 l -0.016,-0.432 c 0.3519989,5e-7 0.6746652,-0.04 0.968,-0.12 0.2933313,-0.0799993 0.5466644,-0.20266588 0.76,-0.36799996 0.218664,-0.17066559 0.3946638,-0.38666537 0.528,-0.648 0.1386635,-0.26666484 0.2319967,-0.58666452 0.28,-0.96 -0.1440032,0.0746691 -0.3173363,0.14133571 -0.52,0.2 -0.2026692,0.0533356 -0.418669,0.0800022 -0.648,0.08 -0.2986685,2.24e-6 -0.5520016,-0.0453311 -0.76,-0.136 -0.2080012,-0.0959975 -0.376001,-0.22133074 -0.504,-0.37600004 -0.1280007,-0.1546637 -0.221334,-0.3333302 -0.28,-0.536 -0.058667,-0.2026631 -0.088,-0.4133296 -0.088,-0.632 -5e-7,-0.2026625 0.032,-0.4079956 0.096,-0.616 0.063999,-0.2079952 0.1626659,-0.3946617 0.296,-0.56 0.1386656,-0.1706614 0.3093321,-0.3093279 0.512,-0.416 0.2079984,-0.106661 0.4533315,-0.1599943 0.736,-0.16 0.5813306,5.7e-6 1.0213302,0.2053388 1.32,0.616 0.3039962,0.405338 0.4559961,0.9733375 0.456,1.704 m -1.736,0.656 c 0.2453309,2.7e-6 0.458664,-0.026664 0.64,-0.08 0.1866637,-0.058664 0.3599968,-0.1253304 0.52,-0.2 0.00533,-0.063997 0.008,-0.1253302 0.008,-0.184 0.00533,-0.058663 0.008,-0.12533 0.008,-0.2 -3.4e-6,-0.250663 -0.01867,-0.4879961 -0.056,-0.712 -0.032003,-0.2239957 -0.096003,-0.4213288 -0.192,-0.592 -0.09067,-0.1706618 -0.2133362,-0.303995 -0.368,-0.4 -0.1546693,-0.1013281 -0.3520024,-0.1519947 -0.592,-0.152 -0.1973353,5.3e-6 -0.3653351,0.037339 -0.504,0.112 -0.1386682,0.069338 -0.2506681,0.1626716 -0.336,0.28 -0.085335,0.1173381 -0.1493345,0.2533379 -0.192,0.408 -0.037334,0.154671 -0.056001,0.3146708 -0.056,0.48 -1.1e-6,0.4213369 0.093332,0.7333366 0.28,0.936 0.1919985,0.2026695 0.4719982,0.3040027 0.84,0.304"
         id="path4865"
         inkscape:connector-curvature="0" />
      <path
         d="m 10.545065,-1.1962047 c -10e-7,-0.9386629 0.154666,-1.6559955 0.464,-2.152 0.309332,-0.4959945 0.749331,-0.7439943 1.32,-0.744 0.56533,5.7e-6 1.002663,0.2480055 1.312,0.744 0.314663,0.4960045 0.471996,1.2133371 0.472,2.152 -4e-6,0.93333521 -0.157337,1.64800116 -0.472,2.14400004 -0.309337,0.49600016 -0.74667,0.74399986 -1.312,0.74399996 -0.565335,-10e-8 -1.005335,-0.2479998 -1.32,-0.74399996 -0.309334,-0.49599888 -0.464001,-1.21066483 -0.464,-2.14400004 m 3,0 c -4e-6,-0.3199969 -0.02134,-0.6239966 -0.064,-0.912 -0.03734,-0.2933293 -0.104003,-0.5519957 -0.2,-0.776 -0.096,-0.2239953 -0.221337,-0.4026618 -0.376,-0.536 -0.15467,-0.1333282 -0.346669,-0.1999948 -0.576,-0.2 -0.234669,5.2e-6 -0.429335,0.066672 -0.584,0.2 -0.154668,0.1333382 -0.280002,0.3120047 -0.376,0.536 -0.09067,0.2240043 -0.157335,0.4826707 -0.2,0.776 -0.03734,0.2880034 -0.056,0.5920031 -0.056,0.912 -1e-6,0.32000249 0.01866,0.62666885 0.056,0.92000004 0.04266,0.28800156 0.109332,0.54400131 0.2,0.768 0.096,0.21866753 0.221332,0.39466736 0.376,0.52799996 0.154665,0.1333338 0.349331,0.2000004 0.584,0.2 0.229331,4e-7 0.42133,-0.066666 0.576,-0.2 0.154663,-0.1333326 0.279997,-0.30933243 0.376,-0.52799996 0.096,-0.22399869 0.162663,-0.47999844 0.2,-0.768 0.04266,-0.29333119 0.064,-0.59999755 0.064,-0.92000004"
         id="path4867"
         inkscape:connector-curvature="0" />
      <path
         d="m 15.86069,-2.5162047 c -0.138668,4.1e-6 -0.272001,-0.023996 -0.4,-0.072 -0.122668,-0.047996 -0.232001,-0.1146623 -0.328,-0.2 -0.096,-0.090662 -0.173334,-0.1999954 -0.232,-0.328 -0.05333,-0.1333285 -0.08,-0.2826617 -0.08,-0.448 0,-0.165328 0.02667,-0.3119945 0.08,-0.44 0.05867,-0.1333276 0.135999,-0.2426608 0.232,-0.328 0.096,-0.090661 0.205332,-0.1599939 0.328,-0.208 0.127999,-0.047994 0.261332,-0.071994 0.4,-0.072 0.138665,6.2e-6 0.269332,0.024006 0.392,0.072 0.127998,0.048006 0.239998,0.1173394 0.336,0.208 0.096,0.085339 0.170664,0.1946724 0.224,0.328 0.05866,0.1280055 0.088,0.274672 0.088,0.44 -3e-6,0.1653383 -0.02934,0.3146715 -0.088,0.448 -0.05334,0.1280046 -0.128002,0.2373378 -0.224,0.328 -0.096,0.085338 -0.208002,0.1520043 -0.336,0.2 -0.122668,0.048004 -0.253335,0.072004 -0.392,0.072 m 0,-0.36 c 0.186665,4.5e-6 0.341332,-0.061329 0.464,-0.184 0.127998,-0.1226619 0.191998,-0.2906617 0.192,-0.504 -2e-6,-0.2133279 -0.064,-0.3813278 -0.192,-0.504 -0.122668,-0.1226609 -0.277335,-0.1839941 -0.464,-0.184 -0.186668,5.9e-6 -0.344001,0.061339 -0.472,0.184 -0.122668,0.1226722 -0.184001,0.2906721 -0.184,0.504 -10e-7,0.2133383 0.06133,0.3813381 0.184,0.504 0.127999,0.1226712 0.285332,0.1840045 0.472,0.184"
         id="path4869"
         inkscape:connector-curvature="0" />
    </g>
  </g>
</svg>
