<?xml version="1.0" encoding="UTF-8" standalone="no"?>
<!-- Created with Inkscape (http://www.inkscape.org/) -->

<svg
   xmlns:dc="http://purl.org/dc/elements/1.1/"
   xmlns:cc="http://creativecommons.org/ns#"
   xmlns:rdf="http://www.w3.org/1999/02/22-rdf-syntax-ns#"
   xmlns:svg="http://www.w3.org/2000/svg"
   xmlns="http://www.w3.org/2000/svg"
   xmlns:sodipodi="http://sodipodi.sourceforge.net/DTD/sodipodi-0.dtd"
   xmlns:inkscape="http://www.inkscape.org/namespaces/inkscape"
   width="16px"
   height="16px"
   id="svg4504"
   version="1.1"
   inkscape:version="0.48.3.1 r9886"
   sodipodi:docname="reset.svg">
  <defs
     id="defs4506" />
  <sodipodi:namedview
     id="base"
     pagecolor="#ffffff"
     bordercolor="#666666"
     borderopacity="1.0"
     inkscape:pageopacity="0.0"
     inkscape:pageshadow="2"
     inkscape:zoom="44.395604"
     inkscape:cx="4.7100126"
     inkscape:cy="6.8992594"
     inkscape:current-layer="layer1"
     showgrid="true"
     inkscape:grid-bbox="true"
     inkscape:document-units="px"
     inkscape:window-width="1918"
     inkscape:window-height="973"
     inkscape:window-x="0"
     inkscape:window-y="27"
     inkscape:window-maximized="1" />
  <metadata
     id="metadata4509">
    <rdf:RDF>
      <cc:Work
         rdf:about="">
        <dc:format>image/svg+xml</dc:format>
        <dc:type
           rdf:resource="http://purl.org/dc/dcmitype/StillImage" />
        <dc:title></dc:title>
      </cc:Work>
    </rdf:RDF>
  </metadata>
  <g
     id="layer1"
     inkscape:label="Layer 1"
     inkscape:groupmode="layer">
    <path
       style="font-size:medium;font-style:normal;font-variant:normal;font-weight:normal;font-stretch:normal;text-indent:0;text-align:start;text-decoration:none;line-height:normal;letter-spacing:normal;word-spacing:normal;text-transform:none;direction:ltr;block-progression:tb;writing-mode:lr-tb;text-anchor:start;baseline-shift:baseline;color:#000000;fill:#333333;fill-opacity:1;stroke:none;stroke-width:0.99170095000000003;marker:none;visibility:visible;display:inline;overflow:visible;enable-background:accumulate;font-family:Sans;-inkscape-font-specification:Sans"
       d="m 8.03125,2.09375 c -3.4706955,0 -5.84375,2.6667328 -5.84375,5.84375 0,3.177017 2.3730545,5.96875 5.84375,5.96875 2.819941,0 4.929587,-1.871626 5.625,-4.28125 0,0 0.06802,-0.7104814 -0.77279,-0.7560829 C 12.042655,8.8233155 11.75,9.625 11.75,9.625 c -0.631599,1.548396 -2.1083169,2.59375 -3.71875,2.59375 -2.1344865,0 -4.0625,-1.821835 -4.0625,-4.25 C 3.96875,5.5405849 5.8967635,3.75 8.03125,3.75 9.1798379,3.75 10.243432,4.2628683 11,5.125 L 9.2023171,5.2019043 12.18871,7.5778205 14.882281,5.1475248 13.25,5.125 C 12.305451,3.3228086 10.417354,2.09375 8.03125,2.09375 z"
       id="path4512"
       inkscape:connector-curvature="0"
       sodipodi:nodetypes="sssczccsscccccs" />
  </g>
</svg>
